<?xml version="1.0" encoding="utf-8"?>
<!-- Generator: Adobe Illustrator 22.1.0, SVG Export Plug-In . SVG Version: 6.00 Build 0)  -->
<svg version="1.1" id="Layer_1" xmlns="http://www.w3.org/2000/svg" xmlns:xlink="http://www.w3.org/1999/xlink" x="0px" y="0px"
	 viewBox="0 0 739.9 266.7" style="enable-background:new 0 0 739.9 266.7;" xml:space="preserve">
<style type="text/css">
	.st0{fill:#363A45;}
	.st1{fill:#24292D;}
	.st2{fill:#FFFFFF;}
</style>
<g>
	<g>
		<g>
			<g>
				<rect x="68" y="125.1" class="st0" width="132.1" height="53.8"/>
				<rect x="116.7" y="103.9" class="st0" width="32.1" height="12.8"/>
				<path class="st1" d="M73.3,201.8c-4.7,0-8.5,3.8-8.5,8.5c0,4.7,3.8,8.5,8.5,8.5c4.7,0,8.5-3.8,8.5-8.5
					C81.8,205.6,78,201.8,73.3,201.8z"/>
				<path class="st1" d="M191.2,201.8c-4.7,0-8.5,3.8-8.5,8.5c0,4.7,3.8,8.5,8.5,8.5c4.7,0,8.5-3.8,8.5-8.5
					C199.7,205.6,195.9,201.8,191.2,201.8z"/>
			</g>
		</g>
		<g>
			<path class="st0" d="M85.7,9.2v66.3h94.1V9.2c-14.6-5.5-30.5-8.6-47-8.6C116.2,0.6,100.3,3.6,85.7,9.2z"/>
			<path class="st0" d="M186.9,12.1v70.5H78.6V12.1C32.3,32.8,0,79.3,0,133.3c0,40.7,18.3,77.1,47.2,101.5V109.9
				c0-8.9,7.2-16.1,16.1-16.1h139.2c8.9,0,16.1,7.2,16.1,16.1v124.8c28.8-24.4,47-60.7,47-101.4C265.5,79.3,233.2,32.8,186.9,12.1z"
				/>
		</g>
		<path class="st2" d="M202.4,93.8h-57.3V82.6h41.7V12.1c-2.3-1-4.7-2-7.1-2.9v66.3H85.7V9.2c-2.4,0.9-4.8,1.9-7.1,2.9v70.5h41.7
			v11.3H63.2c-8.9,0-16.1,7.2-16.1,16.1v124.9c23.1,19.5,53,31.3,85.6,31.3c32.7,0,62.6-11.8,85.7-31.4V109.9
			C218.5,101,211.3,93.8,202.4,93.8z M116.7,103.9h32.1v12.8h-32.1V103.9z M73.3,218.7c-4.7,0-8.5-3.8-8.5-8.5
			c0-4.7,3.8-8.5,8.5-8.5c4.7,0,8.5,3.8,8.5,8.5C81.8,214.9,78,218.7,73.3,218.7z M191.2,218.7c-4.7,0-8.5-3.8-8.5-8.5
			c0-4.7,3.8-8.5,8.5-8.5c4.7,0,8.5,3.8,8.5,8.5C199.7,214.9,195.9,218.7,191.2,218.7z M200,178.9h-54.2v-5.8L90.5,145l-3.2,6.3
			l51.5,26.2v1.5H68v-53.8H200V178.9z"/>
	</g>
	<g>
		<path class="st0" d="M413.1,85.7c9.3,9.7,13.9,21.7,13.9,35.9c0,14.2-4.6,26.2-13.9,35.9c-9.3,9.7-20.9,14.6-34.7,14.6h-40.1v-101
			h40.1C392.3,71.1,403.8,76,413.1,85.7z M399.8,144.3c5.5-5.8,8.2-13.4,8.2-22.7c0-9.3-2.7-16.9-8.2-22.7s-12.6-8.7-21.4-8.7h-20.2
			v62.9h20.2C387.2,153.1,394.3,150.2,399.8,144.3z"/>
		<path class="st0" d="M476.4,157.3c7.1,0,12.5-2.4,16.2-7.2l15,8.7c-7.1,10.3-17.6,15.4-31.5,15.4c-11.9,0-21.5-3.6-28.7-10.8
			c-7.2-7.2-10.8-16.3-10.8-27.3c0-10.9,3.6-19.9,10.7-27.2c7.1-7.3,16.3-10.9,27.4-10.9c10.6,0,19.3,3.7,26.2,11
			c6.9,7.3,10.3,16.4,10.3,27.1c0,2.4-0.2,5-0.7,7.6H456C458.5,152.7,465.3,157.3,476.4,157.3z M492.6,129.3
			c-1.1-4.9-3.2-8.6-6.6-11c-3.3-2.4-7.1-3.6-11.3-3.6c-5,0-9.1,1.3-12.4,3.8c-3.3,2.5-5.4,6.1-6.5,10.8H492.6z"/>
		<path class="st0" d="M591,109c6.9,7.4,10.3,16.4,10.3,27.1c0,10.7-3.4,19.7-10.3,27.1c-6.9,7.4-15.2,11-24.9,11
			c-10.1,0-17.9-3.5-23.4-10.5V201h-18.6V100h18.6v8.5c5.5-7,13.3-10.5,23.4-10.5C575.9,98,584.2,101.6,591,109z M577,150.7
			c3.8-3.8,5.7-8.7,5.7-14.6c0-6-1.9-10.8-5.7-14.6c-3.8-3.8-8.6-5.7-14.4-5.7c-5.8,0-10.5,1.9-14.3,5.7c-3.8,3.8-5.6,8.7-5.6,14.6
			c0,6,1.9,10.8,5.6,14.6c3.8,3.8,8.5,5.7,14.3,5.7C568.5,156.4,573.2,154.5,577,150.7z"/>
		<path class="st0" d="M621.8,163.1c-7.4-7.4-11-16.4-11-27.1c0-10.7,3.7-19.7,11-27.1s16.4-11,27.1-11c10.7,0,19.7,3.7,27.1,11
			c7.4,7.4,11.1,16.4,11.1,27.1c0,10.7-3.7,19.7-11.1,27.1c-7.4,7.4-16.5,11-27.1,11C638.2,174.1,629.1,170.5,621.8,163.1z
			 M662.8,150.3c3.8-3.8,5.6-8.5,5.6-14.3c0-5.8-1.9-10.5-5.6-14.3c-3.8-3.8-8.4-5.6-14-5.6c-5.6,0-10.2,1.9-13.9,5.6
			c-3.7,3.8-5.6,8.5-5.6,14.3c0,5.8,1.9,10.5,5.6,14.3s8.3,5.6,13.9,5.6C654.4,156,659.1,154.1,662.8,150.3z"/>
		<path class="st0" d="M723.6,117.9v30c0,2.5,0.6,4.3,1.9,5.5c1.2,1.2,3.1,1.8,5.5,1.9c2.4,0.1,5.4,0.1,8.9-0.1v16.9
			c-12.8,1.4-21.8,0.2-27.1-3.6c-5.2-3.8-7.9-10.7-7.9-20.6v-30h-12.6V100H705V85.4l18.6-5.6V100h16.3v17.9H723.6z"/>
	</g>
</g>
</svg>
