<?xml version="1.0" encoding="utf-8"?>
<!-- Generator: Adobe Illustrator 22.1.0, SVG Export Plug-In . SVG Version: 6.00 Build 0)  -->
<svg version="1.1" id="Layer_1" xmlns="http://www.w3.org/2000/svg" xmlns:xlink="http://www.w3.org/1999/xlink" x="0px" y="0px"
	 viewBox="0 0 265.5 266.7" style="enable-background:new 0 0 265.5 266.7;" xml:space="preserve">
<style type="text/css">
	.st0{fill:#363A45;}
	.st1{fill:#FFFFFF;}
</style>
<g>
	<g>
		<g>
			<g>
				<rect x="68" y="125.1" class="st0" width="132.1" height="53.8"/>
				<rect x="116.7" y="103.9" class="st0" width="32.1" height="12.8"/>
				<path class="st0" d="M73.3,201.8c-4.7,0-8.5,3.8-8.5,8.5c0,4.7,3.8,8.5,8.5,8.5c4.7,0,8.5-3.8,8.5-8.5
					C81.8,205.6,78,201.8,73.3,201.8z"/>
				<path class="st0" d="M191.2,201.8c-4.7,0-8.5,3.8-8.5,8.5c0,4.7,3.8,8.5,8.5,8.5c4.7,0,8.5-3.8,8.5-8.5
					C199.7,205.6,195.9,201.8,191.2,201.8z"/>
			</g>
		</g>
		<g>
			<path class="st0" d="M85.7,9.2v66.3h94.1V9.2c-14.6-5.5-30.5-8.6-47-8.6C116.2,0.6,100.3,3.6,85.7,9.2z"/>
			<path class="st0" d="M186.9,12.1v70.5H78.6V12.1C32.3,32.8,0,79.3,0,133.3c0,40.7,18.3,77.1,47.2,101.5V109.9
				c0-8.9,7.2-16.1,16.1-16.1h139.2c8.9,0,16.1,7.2,16.1,16.1v124.8c28.8-24.4,47-60.7,47-101.4C265.5,79.3,233.2,32.8,186.9,12.1z"
				/>
		</g>
		<path class="st1" d="M202.4,93.8h-57.3V82.6h41.7V12.1c-2.3-1-4.7-2-7.1-2.9v66.3H85.7V9.2c-2.4,0.9-4.8,1.9-7.1,2.9v70.5h41.7
			v11.3H63.2c-8.9,0-16.1,7.2-16.1,16.1v124.9c23.1,19.5,53,31.3,85.6,31.3c32.7,0,62.6-11.8,85.7-31.4V109.9
			C218.5,101,211.3,93.8,202.4,93.8z M116.7,103.9h32.1v12.8h-32.1V103.9z M73.3,218.7c-4.7,0-8.5-3.8-8.5-8.5
			c0-4.7,3.8-8.5,8.5-8.5c4.7,0,8.5,3.8,8.5,8.5C81.8,214.9,78,218.7,73.3,218.7z M191.2,218.7c-4.7,0-8.5-3.8-8.5-8.5
			c0-4.7,3.8-8.5,8.5-8.5c4.7,0,8.5,3.8,8.5,8.5C199.7,214.9,195.9,218.7,191.2,218.7z M200,178.9h-54.2v-5.8L90.5,145l-3.2,6.3
			l51.5,26.2v1.5H68v-53.8H200V178.9z"/>
	</g>
</g>
</svg>
